<svg width="16" height="16" viewBox="0 0 16 16" fill="none" xmlns="http://www.w3.org/2000/svg">
<path d="M2.31125 0.812469C1.21133 0.812469 0.492188 1.53473 0.492188 2.48404C0.492188 3.41238 1.18991 4.15524 2.26904 4.15524H2.28992C3.41135 4.15524 4.10925 3.41238 4.10925 2.48404C4.08829 1.53473 3.41135 0.812469 2.31125 0.812469V0.812469Z" fill="white"/>
<path d="M0.682251 5.47607H3.89777V15.1501H0.682251V5.47607Z" fill="white"/>
<path d="M11.7903 5.24902C10.0557 5.24902 8.89252 6.87903 8.89252 6.87903V5.47607H5.67691V15.1501H8.89233V9.74774C8.89233 9.45853 8.9133 9.16977 8.99826 8.96295C9.23071 8.38544 9.7597 7.78714 10.648 7.78714C11.8116 7.78714 12.2769 8.67429 12.2769 9.97479V15.1501H15.4922V9.60318C15.4922 6.63174 13.9058 5.24902 11.7903 5.24902V5.24902Z" fill="white"/>
</svg>
